<?xml version="1.0" encoding="UTF-8" standalone="no"?>
<!-- Created with Inkscape (http://www.inkscape.org/) -->
<svg
   xmlns:dc="http://purl.org/dc/elements/1.1/"
   xmlns:cc="http://web.resource.org/cc/"
   xmlns:rdf="http://www.w3.org/1999/02/22-rdf-syntax-ns#"
   xmlns:svg="http://www.w3.org/2000/svg"
   xmlns="http://www.w3.org/2000/svg"
   xmlns:xlink="http://www.w3.org/1999/xlink"
   xmlns:sodipodi="http://sodipodi.sourceforge.net/DTD/sodipodi-0.dtd"
   xmlns:inkscape="http://www.inkscape.org/namespaces/inkscape"
   width="388"
   height="391.29431"
   id="svg4217"
   sodipodi:version="0.32"
   inkscape:version="0.45"
   sodipodi:docname="key.svg"
   sodipodi:docbase="/home/barret/Desktop/My Documents/Art/icons"
   inkscape:output_extension="org.inkscape.output.svg.inkscape"
   version="1.0"
   inkscape:export-filename="/home/barret/Desktop/My Documents/Art/icons/key.png"
   inkscape:export-xdpi="90"
   inkscape:export-ydpi="90"
   sodipodi:modified="true">
  <defs
     id="defs4219">
    <linearGradient
       id="linearGradient3634">
      <stop
         id="stop3636"
         offset="0"
         style="stop-color:#ffe800;stop-opacity:0.39215687;" />
      <stop
         id="stop3638"
         offset="1"
         style="stop-color:#dfb300;stop-opacity:0.39215687;" />
    </linearGradient>
    <linearGradient
       inkscape:collect="always"
       id="linearGradient5304">
      <stop
         style="stop-color:#ffffff;stop-opacity:1;"
         offset="0"
         id="stop5306" />
      <stop
         style="stop-color:#ffffff;stop-opacity:0;"
         offset="1"
         id="stop5308" />
    </linearGradient>
    <linearGradient
       inkscape:collect="always"
       id="linearGradient4685">
      <stop
         style="stop-color:#ffffff;stop-opacity:1;"
         offset="0"
         id="stop4687" />
      <stop
         style="stop-color:#ffffff;stop-opacity:0;"
         offset="1"
         id="stop4689" />
    </linearGradient>
    <linearGradient
       id="linearGradient4552">
      <stop
         style="stop-color:#b08e00;stop-opacity:1;"
         offset="0"
         id="stop4558" />
      <stop
         id="stop4556"
         offset="1"
         style="stop-color:#dfb300;stop-opacity:1;" />
    </linearGradient>
    <linearGradient
       id="linearGradient4032">
      <stop
         id="stop4034"
         offset="0"
         style="stop-color:#dfb300;stop-opacity:1;" />
      <stop
         style="stop-color:#dfb300;stop-opacity:1;"
         offset="0.5"
         id="stop3374" />
      <stop
         id="stop3376"
         offset="1"
         style="stop-color:#dfb300;stop-opacity:1;" />
    </linearGradient>
    <linearGradient
       id="linearGradient4022">
      <stop
         style="stop-color:#dfb300;stop-opacity:1;"
         offset="0"
         id="stop4024" />
      <stop
         style="stop-color:#dfb300;stop-opacity:0;"
         offset="1"
         id="stop4026" />
    </linearGradient>
    <linearGradient
       id="linearGradient3795">
      <stop
         style="stop-color:#ffe800;stop-opacity:1;"
         offset="0"
         id="stop3797" />
      <stop
         style="stop-color:#dfb300;stop-opacity:1;"
         offset="1"
         id="stop3799" />
    </linearGradient>
    <linearGradient
       id="linearGradient3724">
      <stop
         id="stop3726"
         offset="0"
         style="stop-color:#ffffff;stop-opacity:1;" />
      <stop
         id="stop3728"
         offset="1"
         style="stop-color:#d9d9d9;stop-opacity:1;" />
    </linearGradient>
    <linearGradient
       id="linearGradient3698">
      <stop
         style="stop-color:#ffffff;stop-opacity:1;"
         offset="0"
         id="stop3700" />
      <stop
         style="stop-color:#ffe800;stop-opacity:0;"
         offset="1"
         id="stop3702" />
    </linearGradient>
    <linearGradient
       inkscape:collect="always"
       xlink:href="#linearGradient3698"
       id="linearGradient3876"
       gradientUnits="userSpaceOnUse"
       gradientTransform="matrix(1,0,0,-1,0,1052.3622)"
       x1="363.65491"
       y1="670.23621"
       x2="363.65491"
       y2="582.3291" />
    <linearGradient
       inkscape:collect="always"
       xlink:href="#linearGradient3795"
       id="linearGradient3880"
       x1="362.85715"
       y1="700.93359"
       x2="362.85715"
       y2="452.21143"
       gradientUnits="userSpaceOnUse" />
    <linearGradient
       inkscape:collect="always"
       xlink:href="#linearGradient3795"
       id="linearGradient3941"
       gradientUnits="userSpaceOnUse"
       x1="362.85715"
       y1="700.93359"
       x2="362.85715"
       y2="452.21143"
       gradientTransform="translate(6,0)" />
    <linearGradient
       inkscape:collect="always"
       xlink:href="#linearGradient3795"
       id="linearGradient3943"
       gradientUnits="userSpaceOnUse"
       x1="362.85715"
       y1="700.93359"
       x2="362.85715"
       y2="452.21143"
       gradientTransform="matrix(1,0,0,-1,0,1052.3622)" />
    <linearGradient
       inkscape:collect="always"
       xlink:href="#linearGradient3795"
       id="linearGradient4000"
       gradientUnits="userSpaceOnUse"
       x1="362.85715"
       y1="700.93359"
       x2="362.85715"
       y2="452.21143"
       gradientTransform="translate(15.53126,7.2999999e-6)" />
    <linearGradient
       inkscape:collect="always"
       xlink:href="#linearGradient3795"
       id="linearGradient4013"
       gradientUnits="userSpaceOnUse"
       gradientTransform="matrix(1,0,0,-1,23.53126,1052.3622)"
       x1="362.85715"
       y1="700.93359"
       x2="362.85715"
       y2="452.21143" />
    <linearGradient
       inkscape:collect="always"
       xlink:href="#linearGradient3698"
       id="linearGradient4048"
       x1="360"
       y1="692.36218"
       x2="360"
       y2="589.9176"
       gradientUnits="userSpaceOnUse" />
    <linearGradient
       inkscape:collect="always"
       xlink:href="#linearGradient3795"
       id="linearGradient4058"
       gradientUnits="userSpaceOnUse"
       x1="362.85715"
       y1="700.93359"
       x2="362.85715"
       y2="452.21143" />
    <linearGradient
       inkscape:collect="always"
       xlink:href="#linearGradient3698"
       id="linearGradient4060"
       gradientUnits="userSpaceOnUse"
       gradientTransform="matrix(1,0,0,-1,0,1052.3622)"
       x1="363.65491"
       y1="670.23621"
       x2="363.65491"
       y2="582.3291" />
    <linearGradient
       inkscape:collect="always"
       xlink:href="#linearGradient3698"
       id="linearGradient4062"
       gradientUnits="userSpaceOnUse"
       x1="360"
       y1="692.36218"
       x2="360"
       y2="589.9176" />
    <linearGradient
       inkscape:collect="always"
       xlink:href="#linearGradient3698"
       id="linearGradient4758"
       x1="-455.5788"
       y1="8.8746033"
       x2="-455.5788"
       y2="98.00071"
       gradientUnits="userSpaceOnUse" />
    <linearGradient
       inkscape:collect="always"
       xlink:href="#linearGradient3795"
       id="linearGradient4760"
       gradientUnits="userSpaceOnUse"
       x1="-547.66443"
       y1="182.0267"
       x2="-361.34244"
       y2="182.0267"
       gradientTransform="matrix(1,0,0,-1,0,1052.3622)" />
    <linearGradient
       inkscape:collect="always"
       xlink:href="#linearGradient3795"
       id="linearGradient4789"
       gradientUnits="userSpaceOnUse"
       gradientTransform="matrix(1,0,0,-1,14,1052.3622)"
       x1="-469.71429"
       y1="686.42859"
       x2="-469.71429"
       y2="1038.5764" />
    <linearGradient
       inkscape:collect="always"
       xlink:href="#linearGradient4685"
       id="linearGradient4836"
       gradientUnits="userSpaceOnUse"
       x1="366.68536"
       y1="264.44321"
       x2="366.68536"
       y2="393.41516"
       gradientTransform="matrix(0,-0.7881573,0.7881573,0,-7.13887,822.01606)" />
    <linearGradient
       inkscape:collect="always"
       xlink:href="#linearGradient3795"
       id="linearGradient4839"
       gradientUnits="userSpaceOnUse"
       gradientTransform="matrix(8.9611767e-3,-1.1707638,1.1707638,-8.9611767e-3,-257.04223,949.77151)"
       x1="353.04831"
       y1="693.75806"
       x2="353.04831"
       y2="460.89813" />
    <linearGradient
       inkscape:collect="always"
       xlink:href="#linearGradient3795"
       id="linearGradient4842"
       gradientUnits="userSpaceOnUse"
       x1="362.64478"
       y1="242.21985"
       x2="362.64478"
       y2="736.78564"
       gradientTransform="matrix(0,-0.7881573,0.7881573,0,-7.13887,821.5111)" />
    <linearGradient
       inkscape:collect="always"
       xlink:href="#linearGradient3795"
       id="linearGradient4977"
       gradientUnits="userSpaceOnUse"
       gradientTransform="translate(14,-1.7382813e-5)"
       x1="-469.71429"
       y1="686.42859"
       x2="-469.71429"
       y2="1038.5764" />
    <linearGradient
       inkscape:collect="always"
       xlink:href="#linearGradient3795"
       id="linearGradient4988"
       gradientUnits="userSpaceOnUse"
       gradientTransform="translate(14,-1.7382813e-5)"
       x1="-471.14285"
       y1="365.21933"
       x2="-471.14285"
       y2="4.98491" />
    <linearGradient
       inkscape:collect="always"
       xlink:href="#linearGradient3698"
       id="linearGradient4996"
       x1="-452.85715"
       y1="11.647896"
       x2="-452.85715"
       y2="104.83686"
       gradientUnits="userSpaceOnUse" />
    <linearGradient
       inkscape:collect="always"
       xlink:href="#linearGradient3795"
       id="linearGradient5003"
       gradientUnits="userSpaceOnUse"
       gradientTransform="matrix(0,-0.7881573,0.7881573,0,-7.13887,821.5111)"
       x1="362.64478"
       y1="242.21985"
       x2="362.64478"
       y2="736.78564" />
    <linearGradient
       inkscape:collect="always"
       xlink:href="#linearGradient3795"
       id="linearGradient5005"
       gradientUnits="userSpaceOnUse"
       gradientTransform="matrix(8.9611767e-3,-1.1707638,1.1707638,-8.9611767e-3,-257.04223,949.77151)"
       x1="353.04831"
       y1="693.75806"
       x2="353.04831"
       y2="460.89813" />
    <linearGradient
       inkscape:collect="always"
       xlink:href="#linearGradient4685"
       id="linearGradient5007"
       gradientUnits="userSpaceOnUse"
       gradientTransform="matrix(0,-0.7881573,0.7881573,0,-7.13887,822.01606)"
       x1="366.68536"
       y1="264.44321"
       x2="366.68536"
       y2="393.41516" />
    <linearGradient
       inkscape:collect="always"
       xlink:href="#linearGradient4685"
       id="linearGradient5010"
       gradientUnits="userSpaceOnUse"
       gradientTransform="matrix(0.5573114,-0.5573114,0.5573114,0.5573114,-100.32562,463.05361)"
       x1="366.68536"
       y1="264.44321"
       x2="366.68536"
       y2="393.41516" />
    <linearGradient
       inkscape:collect="always"
       xlink:href="#linearGradient3795"
       id="linearGradient5016"
       gradientUnits="userSpaceOnUse"
       gradientTransform="matrix(0.5573114,-0.5573114,0.5573114,0.5573114,-99.968559,462.69655)"
       x1="362.64478"
       y1="242.21985"
       x2="362.64478"
       y2="736.78564" />
    <linearGradient
       inkscape:collect="always"
       xlink:href="#linearGradient3795"
       id="linearGradient5027"
       gradientUnits="userSpaceOnUse"
       gradientTransform="matrix(0.5573114,-0.5573114,0.5573114,0.5573114,-99.968559,462.69655)"
       x1="362.64478"
       y1="242.21985"
       x2="362.64478"
       y2="736.78564" />
    <linearGradient
       inkscape:collect="always"
       xlink:href="#linearGradient4685"
       id="linearGradient5029"
       gradientUnits="userSpaceOnUse"
       gradientTransform="matrix(0.5573114,-0.5573114,0.5573114,0.5573114,-100.32562,463.05361)"
       x1="366.68536"
       y1="264.44321"
       x2="366.68536"
       y2="393.41516" />
    <linearGradient
       inkscape:collect="always"
       xlink:href="#linearGradient4685"
       id="linearGradient5032"
       gradientUnits="userSpaceOnUse"
       gradientTransform="matrix(0.7881574,0,0,0.7881574,76.137105,149.01353)"
       x1="366.68536"
       y1="264.44321"
       x2="366.68536"
       y2="393.41516" />
    <linearGradient
       inkscape:collect="always"
       xlink:href="#linearGradient3795"
       id="linearGradient5036"
       gradientUnits="userSpaceOnUse"
       gradientTransform="matrix(0.7881574,0,0,0.7881574,76.642065,149.01353)"
       x1="384.66339"
       y1="738.58362"
       x2="384.66339"
       y2="244.351" />
    <linearGradient
       inkscape:collect="always"
       xlink:href="#linearGradient3795"
       id="linearGradient5043"
       gradientUnits="userSpaceOnUse"
       gradientTransform="matrix(0.7881574,0,0,0.7881574,76.642065,149.01353)"
       x1="384.66339"
       y1="738.58362"
       x2="384.66339"
       y2="244.351" />
    <linearGradient
       inkscape:collect="always"
       xlink:href="#linearGradient4685"
       id="linearGradient5045"
       gradientUnits="userSpaceOnUse"
       gradientTransform="matrix(0.7881574,0,0,0.7881574,76.137105,149.01353)"
       x1="366.68536"
       y1="264.44321"
       x2="366.68536"
       y2="393.41516" />
    <linearGradient
       inkscape:collect="always"
       xlink:href="#linearGradient3795"
       id="linearGradient5161"
       gradientUnits="userSpaceOnUse"
       gradientTransform="matrix(0.7881574,0,0,0.7881574,76.642065,149.01353)"
       x1="384.66339"
       y1="738.58362"
       x2="384.66339"
       y2="244.351" />
    <linearGradient
       inkscape:collect="always"
       xlink:href="#linearGradient4685"
       id="linearGradient5163"
       gradientUnits="userSpaceOnUse"
       gradientTransform="matrix(0.7881574,0,0,0.7881574,76.137105,149.01353)"
       x1="366.68536"
       y1="264.44321"
       x2="366.68536"
       y2="393.41516" />
    <linearGradient
       inkscape:collect="always"
       xlink:href="#linearGradient4685"
       id="linearGradient5166"
       gradientUnits="userSpaceOnUse"
       gradientTransform="matrix(0.9991407,0,0,0.9991407,39.27924,8.9265001)"
       x1="366.68536"
       y1="264.44321"
       x2="366.68536"
       y2="393.41516" />
    <linearGradient
       inkscape:collect="always"
       xlink:href="#linearGradient3795"
       id="linearGradient5170"
       gradientUnits="userSpaceOnUse"
       gradientTransform="matrix(0.9991407,0,0,0.9991407,39.919373,8.9265001)"
       x1="384.66339"
       y1="738.58362"
       x2="384.66339"
       y2="244.351" />
    <linearGradient
       inkscape:collect="always"
       xlink:href="#linearGradient5304"
       id="linearGradient5310"
       x1="192.85715"
       y1="-31.362305"
       x2="192.85715"
       y2="132.67882"
       gradientUnits="userSpaceOnUse"
       gradientTransform="matrix(0.9036324,0,0,0.9036324,232.67248,288.61755)" />
    <linearGradient
       inkscape:collect="always"
       xlink:href="#linearGradient3795"
       id="linearGradient5698"
       gradientUnits="userSpaceOnUse"
       gradientTransform="matrix(0.9991407,0,0,0.9991407,157.09707,90.748856)"
       x1="384.66339"
       y1="738.58362"
       x2="384.66339"
       y2="244.351" />
    <linearGradient
       inkscape:collect="always"
       xlink:href="#linearGradient3795"
       id="linearGradient5737"
       gradientUnits="userSpaceOnUse"
       gradientTransform="matrix(0.9991407,0,0,0.9991407,39.919373,8.9265001)"
       x1="368.17136"
       y1="736.76624"
       x2="368.17136"
       y2="490.64871" />
    <linearGradient
       inkscape:collect="always"
       xlink:href="#linearGradient3795"
       id="linearGradient5771"
       gradientUnits="userSpaceOnUse"
       gradientTransform="matrix(0.9991407,0,0,0.9991407,39.919373,8.9265001)"
       x1="368.17136"
       y1="736.76624"
       x2="368.17136"
       y2="490.64871" />
    <linearGradient
       inkscape:collect="always"
       xlink:href="#linearGradient5304"
       id="linearGradient5773"
       gradientUnits="userSpaceOnUse"
       gradientTransform="matrix(0.9036324,0,0,0.9036324,232.67248,288.61755)"
       x1="192.85715"
       y1="-31.362305"
       x2="192.85715"
       y2="132.67882" />
    <linearGradient
       inkscape:collect="always"
       xlink:href="#linearGradient5304"
       id="linearGradient5776"
       gradientUnits="userSpaceOnUse"
       gradientTransform="matrix(1.2682759,0,0,1.2682759,160.5585,153.84289)"
       x1="192.85715"
       y1="-31.362305"
       x2="192.85715"
       y2="132.67882" />
    <linearGradient
       inkscape:collect="always"
       xlink:href="#linearGradient4552"
       id="linearGradient5789"
       x1="569.53271"
       y1="309.12817"
       x2="296.64307"
       y2="582.01782"
       gradientUnits="userSpaceOnUse"
       gradientTransform="matrix(0.7071068,0.7071068,-0.7071068,0.7071068,416.40044,-164.22392)" />
    <linearGradient
       inkscape:collect="always"
       xlink:href="#linearGradient5304"
       id="linearGradient5844"
       gradientUnits="userSpaceOnUse"
       gradientTransform="matrix(1.2682759,0,0,1.2682759,160.5585,153.84289)"
       x1="192.85715"
       y1="-31.362305"
       x2="192.85715"
       y2="132.67882" />
    <linearGradient
       inkscape:collect="always"
       xlink:href="#linearGradient4552"
       id="linearGradient5849"
       gradientUnits="userSpaceOnUse"
       gradientTransform="matrix(0.7071068,0.7071068,-0.7071068,0.7071068,416.40044,-164.22392)"
       x1="693.78149"
       y1="710.15875"
       x2="164.26624"
       y2="180.64349" />
    <linearGradient
       inkscape:collect="always"
       xlink:href="#linearGradient4685"
       id="linearGradient6789"
       gradientUnits="userSpaceOnUse"
       gradientTransform="matrix(0,-1.0801612,-1.0801612,0,1220.6392,-612.52504)"
       x1="-772.00726"
       y1="742.5"
       x2="-886.75739"
       y2="742.5" />
    <radialGradient
       inkscape:collect="always"
       xlink:href="#linearGradient3795"
       id="radialGradient6852"
       gradientUnits="userSpaceOnUse"
       gradientTransform="matrix(0.9705775,0,0,0.8107294,-112.84418,-183.88404)"
       cx="316.84982"
       cy="318.35864"
       fx="316.84982"
       fy="318.35864"
       r="176.32553" />
    <linearGradient
       inkscape:collect="always"
       xlink:href="#linearGradient4685"
       id="linearGradient2359"
       gradientUnits="userSpaceOnUse"
       gradientTransform="matrix(0,-1.1884077,-1.1884077,0,1264.2287,-782.97012)"
       x1="-772.00726"
       y1="742.5"
       x2="-886.75739"
       y2="742.5" />
    <linearGradient
       inkscape:collect="always"
       xlink:href="#linearGradient3795"
       id="linearGradient3431"
       x1="403.62915"
       y1="448.3533"
       x2="382.90256"
       y2="448.3533"
       gradientUnits="userSpaceOnUse" />
    <linearGradient
       inkscape:collect="always"
       xlink:href="#linearGradient3795"
       id="linearGradient3433"
       x1="267.84595"
       y1="358.53836"
       x2="506.83289"
       y2="358.53836"
       gradientUnits="userSpaceOnUse" />
    <linearGradient
       inkscape:collect="always"
       xlink:href="#linearGradient3795"
       id="linearGradient3587"
       gradientUnits="userSpaceOnUse"
       x1="267.84595"
       y1="358.53836"
       x2="506.83289"
       y2="358.53836" />
    <linearGradient
       inkscape:collect="always"
       xlink:href="#linearGradient3795"
       id="linearGradient3589"
       gradientUnits="userSpaceOnUse"
       x1="403.62915"
       y1="448.3533"
       x2="382.90256"
       y2="448.3533" />
    <linearGradient
       inkscape:collect="always"
       xlink:href="#linearGradient4685"
       id="linearGradient3591"
       gradientUnits="userSpaceOnUse"
       gradientTransform="matrix(0,-1.1884077,-1.1884077,0,1264.2287,-782.97012)"
       x1="-772.00726"
       y1="742.5"
       x2="-886.75739"
       y2="742.5" />
    <linearGradient
       inkscape:collect="always"
       xlink:href="#linearGradient4685"
       id="linearGradient3594"
       gradientUnits="userSpaceOnUse"
       gradientTransform="matrix(-0.8403312,-0.8403312,-0.8403312,0.8403312,214.11735,-1075.3821)"
       x1="-772.00726"
       y1="742.5"
       x2="-886.75739"
       y2="742.5" />
    <linearGradient
       inkscape:collect="always"
       xlink:href="#linearGradient3795"
       id="linearGradient3598"
       gradientUnits="userSpaceOnUse"
       x1="403.62915"
       y1="448.3533"
       x2="382.90256"
       y2="448.3533"
       gradientTransform="matrix(0.7071068,-0.7071068,0.7071068,0.7071068,-126.18386,372.2061)" />
    <linearGradient
       inkscape:collect="always"
       xlink:href="#linearGradient3795"
       id="linearGradient3601"
       gradientUnits="userSpaceOnUse"
       x1="386.3927"
       y1="63.870872"
       x2="385.03586"
       y2="613.94257"
       gradientTransform="matrix(0.7071068,-0.7071068,0.7071068,0.7071068,-126.18386,372.2061)" />
    <linearGradient
       inkscape:collect="always"
       xlink:href="#linearGradient4032"
       id="linearGradient3609"
       x1="409.38339"
       y1="358.30106"
       x2="212.92615"
       y2="161.84381"
       gradientUnits="userSpaceOnUse" />
    <linearGradient
       inkscape:collect="always"
       xlink:href="#linearGradient3634"
       id="linearGradient3632"
       gradientUnits="userSpaceOnUse"
       gradientTransform="matrix(0.7071068,-0.7071068,0.7071068,0.7071068,-126.18386,372.2061)"
       x1="403.62915"
       y1="448.3533"
       x2="382.90256"
       y2="448.3533" />
  </defs>
  <sodipodi:namedview
     id="base"
     pagecolor="#ffffff"
     bordercolor="#666666"
     borderopacity="1.0"
     gridtolerance="10000"
     guidetolerance="10"
     objecttolerance="10"
     inkscape:pageopacity="0.0"
     inkscape:pageshadow="2"
     inkscape:zoom="1.4"
     inkscape:cx="354.14189"
     inkscape:cy="153.79821"
     inkscape:document-units="px"
     inkscape:current-layer="layer1"
     inkscape:window-width="1600"
     inkscape:window-height="1101"
     inkscape:window-x="0"
     inkscape:window-y="24"
     width="390px"
     height="390px" />
  <metadata
     id="metadata4222">
    <rdf:RDF>
      <cc:Work
         rdf:about="">
        <dc:format>image/svg+xml</dc:format>
        <dc:type
           rdf:resource="http://purl.org/dc/dcmitype/StillImage" />
      </cc:Work>
    </rdf:RDF>
  </metadata>
  <g
     inkscape:label="Layer 1"
     inkscape:groupmode="layer"
     id="layer1"
     transform="translate(-192.20058,-142.77329)">
    <path
       style="color:#000000;fill:url(#linearGradient3601);fill-opacity:1.0;fill-rule:nonzero;stroke:none;stroke-width:40;stroke-linecap:round;stroke-linejoin:miter;marker:none;marker-start:none;marker-mid:none;marker-end:none;stroke-miterlimit:4;stroke-dasharray:none;stroke-dashoffset:0;stroke-opacity:1;visibility:visible;display:inline;overflow:visible;enable-background:accumulate"
       d="M 227.19747,177.7338 C 180.55116,224.38006 180.52688,300.12544 227.17316,346.77173 C 258.08658,377.68512 301.76567,388.09676 341.29138,378.03633 L 363.58504,400.32999 L 403.26142,405.19229 L 408.17234,444.91729 L 447.84873,449.7796 L 452.73534,489.48029 L 492.46034,494.39121 L 497.32265,534.0676 L 567.85033,528.1599 L 573.51491,527.69799 L 574.58463,515.49361 L 580.20059,451.72452 L 558.12573,429.64966 L 536.09951,407.62344 L 514.04896,385.57289 L 492.02274,363.54667 L 469.9722,341.49613 L 447.92166,319.44559 L 425.87112,297.39505 C 438.42015,256.45998 428.52848,210.14844 396.16245,177.78243 C 349.51612,131.13598 273.84379,131.08741 227.19747,177.7338 z M 251.41173,202.04531 C 272.81888,180.63816 303.47844,176.5097 319.84862,192.87988 C 336.21884,209.25009 332.11466,239.93392 310.7075,261.34108 C 289.30031,282.74823 258.64079,286.82809 242.2706,270.4579 C 225.90045,254.08775 230.00457,223.45247 251.41173,202.04531 z "
       id="path6625"
       inkscape:export-filename="/home/barret/Desktop/My Documents/Art/icons/key.png"
       inkscape:export-xdpi="90"
       inkscape:export-ydpi="90" />
    <path
       style="opacity:1;color:#000000;fill:url(#linearGradient3632);fill-opacity:1.0;fill-rule:nonzero;stroke:none;stroke-width:20;stroke-linecap:round;stroke-linejoin:miter;marker:none;stroke-miterlimit:4;stroke-dasharray:none;stroke-dashoffset:0;stroke-opacity:1;visibility:visible;display:inline;overflow:visible;enable-background:accumulate"
       d="M 388.4298,339.03296 C 386.75029,340.71252 385.55104,342.62135 384.73959,344.62353 C 384.0045,346.43737 383.45796,348.54503 383.45796,350.94329 C 383.45796,353.34135 383.98228,355.47112 384.71749,357.28516 C 385.49131,359.19449 386.72814,361.19616 388.4077,362.87572 L 551.5284,525.99642 L 554.79877,529.26679 L 559.41706,528.89114 L 565.09602,528.4271 L 573.49291,527.71999 L 574.24421,519.3231 L 575.30487,507.12551 L 575.70262,502.48512 L 572.41015,499.19265 L 412.25046,339.03296 C 410.57089,337.35342 408.56916,336.11654 406.6599,335.34275 C 404.84594,334.6076 402.7383,334.06112 400.34013,334.06112 C 397.9422,334.06115 395.83448,334.60752 394.02036,335.34275 C 392.11118,336.11654 390.10945,337.35331 388.4298,339.03296 z "
       id="path6871"
       inkscape:export-filename="/home/barret/Desktop/My Documents/Art/icons/key.png"
       inkscape:export-xdpi="90"
       inkscape:export-ydpi="90" />
    <path
       style="color:#000000;fill:url(#linearGradient3609);fill-opacity:1.0;fill-rule:nonzero;stroke:none;stroke-width:30;stroke-linecap:round;stroke-linejoin:miter;marker:none;marker-start:none;marker-mid:none;marker-end:none;stroke-miterlimit:4;stroke-dasharray:none;stroke-dashoffset:0;stroke-opacity:1;visibility:visible;display:inline;overflow:visible;enable-background:accumulate"
       d="M 239.43817,192.85126 C 237.14745,195.26121 235.00744,197.76787 233.00792,200.34218 C 235.51381,197.11428 238.26487,194.02642 241.22803,191.0614 C 240.6275,191.66193 240.01996,192.2392 239.43817,192.85126 z M 243.06209,189.27154 C 247.34642,185.19905 251.89717,181.59745 256.6739,178.44396 C 251.90641,181.59274 247.33873,185.20647 243.06209,189.27154 z M 231.43902,202.4414 C 230.50988,203.7053 229.62637,204.96713 228.76528,206.2642 C 229.62251,204.97281 230.5144,203.6999 231.43902,202.4414 z M 228.63269,206.48517 C 227.73824,207.84017 226.86772,209.22918 226.04733,210.61732 C 226.87305,209.21893 227.73192,207.84993 228.63269,206.48517 z M 226.04733,210.61732 C 224.38952,213.42244 222.89494,216.26818 221.53953,219.19099 C 222.89069,216.27727 224.39591,213.41409 226.04733,210.61732 z M 221.53953,219.19099 C 220.18774,222.10598 218.98873,225.08751 217.9377,228.09612 C 218.98861,225.08884 220.18836,222.10471 221.53953,219.19099 z M 217.9377,228.09612 C 216.88734,231.10282 215.96978,234.14539 215.21976,237.22221 C 215.97041,234.14477 216.8868,231.1034 217.9377,228.09612 z M 215.21976,237.22221 C 214.91142,238.48713 214.63766,239.74893 214.38007,241.02291 C 214.6381,239.74758 214.9109,238.48846 215.21976,237.22221 z M 258.75102,177.11814 C 260.13297,176.25466 261.53536,175.43172 262.94947,174.64326 C 261.53537,175.43144 260.13297,176.25489 258.75102,177.11814 z M 267.2363,172.38936 C 268.67965,171.67594 270.11978,171.01691 271.58943,170.37853 C 270.1288,171.01317 268.67094,171.68054 267.2363,172.38936 z M 285.13495,165.62765 C 286.65748,165.21713 288.19416,164.85911 289.73114,164.5228 C 288.19405,164.85914 286.65757,165.21706 285.13495,165.62765 z M 289.75324,164.5007 C 291.29053,164.16475 292.84478,163.87853 294.39363,163.61682 C 292.84462,163.87854 291.29066,164.16471 289.75324,164.5007 z M 214.22539,241.84051 C 214.07359,242.62524 213.93815,243.41736 213.80555,244.20489 C 213.93691,243.42621 214.07526,242.61645 214.22539,241.84051 z M 213.80555,244.20489 C 213.67516,244.97931 213.54171,245.74833 213.4299,246.52509 C 213.54249,245.74403 213.67418,244.98358 213.80555,244.20489 z M 213.12054,248.86738 C 213.02662,249.65252 212.95251,250.44497 212.87747,251.23177 C 212.95253,250.44706 213.02671,249.65045 213.12054,248.86738 z M 212.6786,253.59616 C 212.62297,254.37787 212.58307,255.15583 212.54601,255.93845 C 212.58355,255.15154 212.6223,254.38215 212.6786,253.59616 z M 306.14928,162.33519 C 307.33341,162.2787 308.52174,162.23869 309.70691,162.2247 C 308.51445,162.23884 307.34069,162.27803 306.14928,162.33519 z M 310.85596,162.2247 C 311.64358,162.22448 312.4329,162.22825 313.22034,162.2468 C 312.42533,162.22785 311.65115,162.22452 310.85596,162.2247 z M 212.6786,267.73829 C 212.79185,269.31534 212.93172,270.8959 213.12054,272.46707 C 212.93288,270.90093 212.79119,269.31027 212.6786,267.73829 z M 322.6558,162.93181 C 324.22192,163.11904 325.78303,163.3324 327.34038,163.59472 C 325.78302,163.332 324.22194,163.11947 322.6558,162.93181 z M 213.80555,277.12955 C 213.93826,277.91488 214.07359,278.7114 214.22539,279.49394 C 214.07527,278.718 213.93691,277.90823 213.80555,277.12955 z M 214.22539,279.49394 C 214.37445,280.26235 214.54406,281.02668 214.71153,281.79204 C 214.54263,281.01921 214.37552,280.26989 214.22539,279.49394 z M 215.83848,286.41033 C 216.04696,287.18209 216.25174,287.96304 216.47929,288.73053 C 216.2541,287.9692 216.04491,287.17586 215.83848,286.41033 z M 217.1864,290.98443 C 217.43025,291.74007 217.67515,292.4876 217.9377,293.23833 C 217.67498,292.48651 217.43036,291.74118 217.1864,290.98443 z M 217.9377,293.23833 C 218.1882,293.95457 218.44358,294.6703 218.7111,295.38175 C 218.44689,294.67806 218.18525,293.94672 217.9377,293.23833 z M 219.63918,297.72404 C 219.94037,298.46639 220.24722,299.19746 220.56726,299.93375 C 220.24823,299.19892 219.93944,298.4649 219.63918,297.72404 z M 220.56726,299.93375 C 220.88754,300.67062 221.20037,301.41302 221.53953,302.14346 C 221.20173,301.41503 220.88628,300.66858 220.56726,299.93375 z M 221.53953,302.14346 C 221.87799,302.87243 222.24293,303.58678 222.60019,304.30897 C 222.24363,303.5873 221.87732,302.87189 221.53953,302.14346 z M 223.68295,306.45239 C 224.0625,307.17472 224.45536,307.88113 224.85409,308.59581 C 224.46,307.88875 224.05827,307.16693 223.68295,306.45239 z M 359.24858,174.90843 C 360.36989,175.54138 361.48426,176.19466 362.58524,176.87507 C 361.4842,176.19487 360.36994,175.54121 359.24858,174.90843 z M 227.32896,312.79425 C 227.71065,313.40478 228.10378,314.02448 228.50011,314.62831 C 228.09917,314.01733 227.7149,313.41208 227.32896,312.79425 z M 228.89786,315.24703 C 229.31529,315.8728 229.7462,316.48503 230.17949,317.10319 C 229.74614,316.48497 229.31535,315.87286 228.89786,315.24703 z M 231.6158,319.11402 C 232.57068,320.40596 233.57277,321.68247 234.59891,322.93682 C 233.57504,321.68548 232.5688,320.40274 231.6158,319.11402 z M 371.07052,182.75289 C 372.37127,183.76 373.67718,184.78734 374.93751,185.86858 C 373.66957,184.78019 372.37939,183.76618 371.07052,182.75289 z M 244.91825,333.78649 C 283.55521,368.69159 343.27386,367.52726 380.50598,330.29515 C 417.73809,293.06303 418.90242,233.34438 383.99732,194.70742 C 415.4126,230.03071 363.49828,238.98292 326.32392,276.15728 C 289.14953,313.33161 280.23979,365.2035 244.91825,333.78649 z "
       id="path2365"
       sodipodi:nodetypes="cssccsccsccsccsccsccsccsccsccsccsccsccsccsccsccsccsccsccsccsccsccsccsccsccsccsccsccsccsccsccsccsccsccsccscsc"
       inkscape:export-filename="/home/barret/Desktop/My Documents/Art/icons/key.png"
       inkscape:export-xdpi="90"
       inkscape:export-ydpi="90" />
    <path
       style="color:#000000;fill:url(#linearGradient3594);fill-opacity:1;fill-rule:nonzero;stroke:none;stroke-width:40;stroke-linecap:round;stroke-linejoin:miter;marker:none;marker-start:none;marker-mid:none;marker-end:none;stroke-miterlimit:4;stroke-dashoffset:0;stroke-opacity:1;visibility:visible;display:inline;overflow:visible;enable-background:accumulate"
       d="M 239.43813,192.8702 C 202.78663,231.42928 203.40949,292.45386 241.24331,330.28768 C 279.67765,368.72203 287.90511,314.59554 326.33948,276.16122 C 364.77383,237.72687 418.9285,229.4712 380.49415,191.03684 C 342.05981,152.60248 279.67765,152.63071 241.2433,191.06504 C 240.64277,191.66557 240.01992,192.25814 239.43813,192.8702 z M 251.42551,202.037 C 272.83267,180.62985 303.48201,176.52822 319.85219,192.8984 C 336.2224,209.2686 332.12075,239.91793 310.7136,261.32509 C 289.30641,282.73223 258.65709,286.83387 242.28691,270.46368 C 225.91675,254.09353 230.01835,223.44417 251.42551,202.037 z "
       id="path6632"
       inkscape:export-filename="/home/barret/Desktop/My Documents/Art/icons/key.png"
       inkscape:export-xdpi="90"
       inkscape:export-ydpi="90" />
  </g>
</svg>
